<svg id="Capa_1" data-name="Capa 1" xmlns="http://www.w3.org/2000/svg" viewBox="0 0 101.44 111.27"><defs><style>.cls-1{fill:#1a8e82;}.cls-2{fill:none;}.cls-3{font-size:20.63px;fill:#090609;}.cls-3,.cls-4{font-family:Verdana-Bold, Verdana;font-weight:700;}.cls-4{font-size:64px;}</style></defs><title>Delete-project</title><path class="cls-1" d="M38.13,47.5A2.17,2.17,0,0,0,38.54,50l.53.53c1.53-1.81,3.32-3.79,5.49-6,.15-.15.31-.22.47-.37L41.61,40.8c-2,3.59-3.15,6-3.48,6.7Zm0,0"/><path class="cls-1" d="M56.85,56.87c-2.18,2.17-4.15,4-6,5.5l.71.72a2.17,2.17,0,0,0,2.53.4c1.13-.58,2.9-1.42,6.65-3.51L57.22,56.4c-.15.16-.22.32-.37.47Zm0,0"/><path class="cls-1" d="M55.69,45.74c-1.57-1.57-6-.16-8.06,1.91C40.7,54.59,37.56,59.51,36.16,62.41a2.17,2.17,0,0,0,2.9,2.9c2.84-1.38,7.7-4.49,14.71-11.51,2.28-2.28,3.41-6.56,1.92-8Zm0,0"/><path class="cls-1" d="M34.09,28.92,28,35.06A2.17,2.17,0,0,0,30,38.69c3.32-.89,6.25-1.26,8.21-.76a117,117,0,0,1,9-13.72c-1.84-1.18-7.93-.52-13.15,4.71Zm0,0"/><path class="cls-1" d="M64.07,73.9a2.16,2.16,0,0,0,2.51-.41l6.15-6.14c4.75-4.75,5.59-10.89,4.51-12.84a123.65,123.65,0,0,1-13.72,8.92c.3,1.71.1,3.37-.62,8.21a2.17,2.17,0,0,0,1.17,2.26Zm0,0"/><path class="cls-1" d="M70.43,21.79a6.51,6.51,0,1,0,9.21,0,6.52,6.52,0,0,0-9.21,0Zm0,0"/><path class="cls-1" d="M101.32,2.12a2.17,2.17,0,0,0-2-2A42.77,42.77,0,0,0,83.46,2a18.21,18.21,0,0,0,5.4,10.61A18.09,18.09,0,0,0,99.67,18a44.87,44.87,0,0,0,1.65-15.84Zm0,0"/><rect class="cls-2" x="27.31" width="74.13" height="74.13"/><path class="cls-1" d="M85.79,15.64A22.71,22.71,0,0,1,79.26,3.47c-13,5.35-25.53,17-35.39,33.44l4.9,4.9c3.35-1.36,7.41-1.72,10,.86s2.22,6.65.86,10l5.06,5.07C77.3,50.12,92,38.13,98.25,22.18a22.63,22.63,0,0,1-12.46-6.54ZM82.71,34.07a10.86,10.86,0,1,1,0-15.36,10.87,10.87,0,0,1,0,15.36Zm0,0"/><text class="cls-3" transform="translate(15.06 104.27)">Delete </text><text class="cls-4" transform="translate(0 91.86)">-</text></svg>