<svg xmlns="http://www.w3.org/2000/svg" viewBox="0 0 90.23 109.53"><defs><style>.cls-1{fill:#1a8e82;}.cls-2{fill:none;}.cls-3{font-size:20.63px;fill:#090609;font-family:Verdana-Bold, Verdana;font-weight:700;}</style></defs><title>Recurso 1</title><g id="Capa_2" data-name="Capa 2"><g id="Capa_1-2" data-name="Capa 1"><path class="cls-1" d="M19.07,47.5A2.17,2.17,0,0,0,19.48,50l.53.53c1.53-1.81,3.32-3.79,5.49-6,.15-.15.31-.22.47-.37L22.55,40.8c-2,3.59-3.15,6-3.48,6.7Z"/><path class="cls-1" d="M37.79,56.87c-2.18,2.17-4.15,4-5.95,5.5l.71.72a2.17,2.17,0,0,0,2.53.4c1.13-.58,2.9-1.42,6.65-3.51L38.15,56.4c-.14.16-.21.32-.36.47Z"/><path class="cls-1" d="M36.63,45.74c-1.57-1.57-6-.16-8.06,1.91C21.64,54.59,18.5,59.51,17.1,62.41a2.17,2.17,0,0,0,2.9,2.9c2.84-1.38,7.7-4.49,14.71-11.51,2.28-2.28,3.41-6.56,1.92-8Z"/><path class="cls-1" d="M15,28.92,8.89,35.06A2.17,2.17,0,0,0,11,38.69c3.32-.89,6.25-1.26,8.21-.76a117,117,0,0,1,9-13.72C26.34,23,20.25,23.69,15,28.92Z"/><path class="cls-1" d="M45,73.9a2.16,2.16,0,0,0,2.51-.41l6.15-6.14c4.75-4.75,5.59-10.89,4.51-12.84a123.65,123.65,0,0,1-13.72,8.92c.3,1.71.1,3.37-.62,8.21A2.17,2.17,0,0,0,45,73.9Z"/><path class="cls-1" d="M51.37,21.79a6.51,6.51,0,1,0,9.21,0,6.52,6.52,0,0,0-9.21,0Z"/><path class="cls-1" d="M82.26,2.12a2.17,2.17,0,0,0-2-2A42.77,42.77,0,0,0,64.4,2a18.21,18.21,0,0,0,5.4,10.61A18.09,18.09,0,0,0,80.61,18,44.87,44.87,0,0,0,82.26,2.12Z"/><rect class="cls-2" x="8.25" width="74.13" height="74.13"/><path class="cls-1" d="M66.73,15.64A22.71,22.71,0,0,1,60.2,3.47c-13,5.35-25.53,17-35.39,33.44l4.9,4.9c3.35-1.36,7.41-1.72,10,.86s2.22,6.65.86,10l5.06,5.07c12.62-7.61,27.32-19.6,33.57-35.55a22.63,22.63,0,0,1-12.46-6.54ZM63.65,34.07a10.86,10.86,0,1,1,0-15.36,10.87,10.87,0,0,1,0,15.36Z"/><text class="cls-3" transform="translate(0 103.27)" > </text></g></g></svg>