<svg id="Capa_1" data-name="Capa 1" xmlns="http://www.w3.org/2000/svg" viewBox="0 0 97.37 105.37"><defs><style>.cls-1{font-size:20.63px;fill:#090609;font-family:Verdana-Bold, Verdana;font-weight:700;}.cls-2{fill:#1a8e82;}.cls-3{fill:none;}</style></defs><title>REports</title><text class="cls-1" transform="translate(0 99.11)">Reports </text><path class="cls-2" d="M31.74,54.34h-3a7.45,7.45,0,0,0-7.44,7.44v5.41a2,2,0,0,0,2,2h8.72a6.23,6.23,0,0,1-.35-2Zm0,0" transform="translate(-6.06 -9.16)"/><path class="cls-2" d="M36.19,52.5h-3a7.45,7.45,0,0,0-7.44,7.44V76.19a2,2,0,0,0,2,2h8.73a6,6,0,0,1-.35-2Zm0,0" transform="translate(-6.06 -9.16)"/><path class="cls-2" d="M80,29.48,65.56,10a2,2,0,0,0-3.25,0L47.86,29.48a2,2,0,0,0,1.62,3.23h5.21V76.19a2,2,0,0,0,2,2H71.15a2,2,0,0,0,2-2V32.71h5.2A2,2,0,0,0,80,29.48Zm0,0" transform="translate(-6.06 -9.16)"/><rect class="cls-3" x="5.28" width="69.06" height="69.06"/><path class="cls-2" d="M50.64,41.66h-3a7.45,7.45,0,0,0-7.44,7.44V76.19a2,2,0,0,0,2,2H51a6,6,0,0,1-.35-2Zm0,0" transform="translate(-6.06 -9.16)"/></svg>